<svg xmlns="http://www.w3.org/2000/svg" width="560" height="220" viewBox="0 0 560 220" role="img" aria-label="Dashboard hero panel visual asset">
  <defs>
    <linearGradient id="panel" x1="0" x2="1" y1="0" y2="1">
      <stop offset="0" stop-color="#102b57"/>
      <stop offset="0.55" stop-color="#073f78"/>
      <stop offset="1" stop-color="#081d38"/>
    </linearGradient>
    <linearGradient id="cyan" x1="0" x2="1">
      <stop offset="0" stop-color="#4fd2ff"/>
      <stop offset="1" stop-color="#0b78d0"/>
    </linearGradient>
    <filter id="glow" x="-40%" y="-40%" width="180%" height="180%">
      <feGaussianBlur stdDeviation="8" result="blur"/>
      <feMerge>
        <feMergeNode in="blur"/>
        <feMergeNode in="SourceGraphic"/>
      </feMerge>
    </filter>
  </defs>
  <rect width="560" height="220" rx="18" fill="url(#panel)"/>
  <g opacity=".25" stroke="#61d8ff" stroke-width="1">
    <path d="M0 38h560M0 76h560M0 114h560M0 152h560M0 190h560"/>
    <path d="M42 0v220M84 0v220M126 0v220M168 0v220M210 0v220M252 0v220M294 0v220M336 0v220M378 0v220M420 0v220M462 0v220M504 0v220"/>
  </g>
  <path d="M64 160h92l44-54h76l36 33h78l42-67h64" fill="none" stroke="#4fd2ff" stroke-width="5" stroke-linecap="round" stroke-linejoin="round" opacity=".72" filter="url(#glow)"/>
  <path d="M82 70h68l26 28h70l34-42h78l26 26h92" fill="none" stroke="#1a8cff" stroke-width="3" stroke-linecap="round" opacity=".62"/>
  <g filter="url(#glow)">
    <rect x="352" y="48" width="92" height="92" rx="18" fill="url(#cyan)" transform="rotate(45 398 94)"/>
    <rect x="378" y="74" width="40" height="40" rx="8" fill="none" stroke="#eaf8ff" stroke-width="4" transform="rotate(45 398 94)"/>
  </g>
  <g fill="#eaf8ff">
    <circle cx="64" cy="160" r="7"/>
    <circle cx="200" cy="106" r="6"/>
    <circle cx="312" cy="139" r="6"/>
    <circle cx="432" cy="72" r="7"/>
  </g>
  <rect x="38" y="36" width="156" height="18" rx="9" fill="#d8ecff" opacity=".22"/>
  <rect x="38" y="64" width="112" height="12" rx="6" fill="#d8ecff" opacity=".14"/>
</svg>
